# xmcd
#
# Track frame offsets:
#	150
#	15081
#	28592
#	45418
#	61058
#	75393
#	94993
#	105855
#	124277
#	146725
#
# Disc length: 2159 seconds
#
# Revision: 1
# Processed by: cddbd v1.5.2PL0 Copyright (c) Steve Scherf et al.
# Submitted via: audiograbber 1.83.01
#
DISCID=6d086d0a
DTITLE=Bellamy Brothers - Sons Of The Sun
DYEAR=1980
DGENRE=Country
TTITLE0=Lovers Live Longer
TTITLE1=Do You Love As Good As You Look
TTITLE2=It's Hard To Be A Cowboy
TTITLE3=Dancin' Romance
TTITLE4=Endangered Species
TTITLE5=Givin' Into Love Again
TTITLE6=Honey We Don't Know No One In Nashville
TTITLE7=Spiders And Snakes
TTITLE8=Classic Case Of The Blues
TTITLE9=Illusions Of Love
EXTD=
EXTT0=
EXTT1=
EXTT2=
EXTT3=
EXTT4=
EXTT5=
EXTT6=
EXTT7=
EXTT8=
EXTT9=
PLAYORDER=
